<svg width="9" height="10" viewBox="0 0 9 10" fill="none" xmlns="http://www.w3.org/2000/svg">
<path d="M8.52056 8.39697L5.30501 9.0477L4.94545 9.12V7.36811L5.06563 7.34368L5.18679 7.31925L8.16197 6.73106L8.34175 6.69588L8.52056 6.66071V8.39697ZM4.30009 2.70921L4.95718 2.58149V0H6.65826V2.25222L8.10237 1.97278L8.16197 1.96105L8.34175 1.92588L8.52056 1.89168V3.62012L8.40233 3.64553L8.28508 3.67093L8.24502 3.67972L8.23721 3.68168L6.65826 3.9875L6.65826 4.66943L8.10432 4.39194L8.16197 4.3812L8.34175 4.34504L8.52056 4.31085V6.04515L5.31479 6.66266L4.95718 6.73106L4.95718 4.31775L4.30009 4.4445L4.3001 6.92793L4.06169 6.97874L0.423073 7.75845L0.363471 7.77115L0 7.84931V6.10328L0.122134 6.08081L0.244268 6.05736L0.281397 6.04954L2.59804 5.55221L2.59803 4.77475L1.04957 5.10276H1.04762L0.810189 5.14576L0.633339 5.178V3.4476L0.877607 3.4007L0.918644 3.39289L2.59803 3.04044V0H4.30009V2.70921Z" fill="black"/>
</svg>
